<svg width="28" height="28" viewBox="0 0 28 28" fill="none" xmlns="http://www.w3.org/2000/svg">
<rect x="0.5" y="0.5" width="27" height="27" rx="13.5" fill="#F5F8FF"/>
<rect x="0.5" y="0.5" width="27" height="27" rx="13.5" stroke="#E3EAFF"/>
<g clip-path="url(#clip0_153_347)">
<path d="M16.5 15.25C16 15.25 15.625 15.4375 15.25 15.75L13.25 14.625C13.3125 14.4375 13.375 14.1875 13.375 14C13.375 13.8125 13.3125 13.5625 13.25 13.375L15.25 12.25C15.625 12.5625 16 12.75 16.5 12.75C17.5625 12.75 18.375 11.9375 18.375 10.875C18.375 9.8125 17.5625 9 16.5 9C15.4375 9 14.625 9.8125 14.625 10.875V11.1875L12.4375 12.375C12.1875 12.25 11.875 12.125 11.5 12.125C10.5 12.125 9.625 12.9375 9.625 14C9.625 15 10.5 15.875 11.5 15.875C11.875 15.875 12.1875 15.75 12.4375 15.625L14.625 16.8125V17.125C14.625 18.1875 15.4375 19 16.5 19C17.5625 19 18.375 18.1875 18.375 17.125C18.375 16.0625 17.5625 15.25 16.5 15.25Z" fill="#688EFF"/>
</g>
<defs>
<clipPath id="clip0_153_347">
<rect width="10" height="10" fill="white" transform="translate(9 9)"/>
</clipPath>
</defs>
</svg>
